<svg width="1313" height="270" viewBox="0 0 1313 270" fill="none" xmlns="http://www.w3.org/2000/svg">
<g filter="url(#filter0_d_5_51)">
<path d="M279.177 16.5347C279.943 16.5347 280.564 15.9139 280.564 15.1481C280.564 14.3823 279.943 13.7615 279.177 13.7615C278.411 13.7615 277.79 14.3823 277.79 15.1481C277.79 15.9139 278.411 16.5347 279.177 16.5347Z" fill="url(#paint0_linear_5_51)"/>
</g>
<g filter="url(#filter1_d_5_51)">
<path d="M50.381 51.4352C52.3686 51.4352 53.9797 49.8246 53.9797 47.838C53.9797 45.8513 52.3686 44.2408 50.381 44.2408C48.3935 44.2408 46.7823 45.8513 46.7823 47.838C46.7823 49.8246 48.3935 51.4352 50.381 51.4352Z" fill="url(#paint1_linear_5_51)"/>
</g>
<g filter="url(#filter2_d_5_51)">
<path d="M13.3144 156.794C15.302 156.794 16.9132 155.184 16.9132 153.197C16.9132 151.211 15.302 149.601 13.3144 149.601C11.3269 149.601 9.71564 151.211 9.71564 153.197C9.71564 155.184 11.3269 156.794 13.3144 156.794Z" fill="url(#paint2_linear_5_51)"/>
</g>
<g filter="url(#filter3_d_5_51)">
<path d="M226.388 185.717C228.375 185.717 229.987 184.106 229.987 182.12C229.987 180.133 228.375 178.523 226.388 178.523C224.4 178.523 222.789 180.133 222.789 182.12C222.789 184.106 224.4 185.717 226.388 185.717Z" fill="url(#paint3_linear_5_51)"/>
</g>
<g filter="url(#filter4_d_5_51)">
<path d="M57.8548 124.809C58.621 124.809 59.242 124.188 59.242 123.422C59.242 122.656 58.621 122.035 57.8548 122.035C57.0887 122.035 56.4676 122.656 56.4676 123.422C56.4676 124.188 57.0887 124.809 57.8548 124.809Z" fill="url(#paint4_linear_5_51)"/>
</g>
<g filter="url(#filter5_d_5_51)">
<path d="M111.004 12.8764C112.208 12.8764 113.183 11.9009 113.183 10.6975C113.183 9.49406 112.208 8.51852 111.004 8.51852C109.8 8.51852 108.824 9.49406 108.824 10.6975C108.824 11.9009 109.8 12.8764 111.004 12.8764Z" fill="url(#paint5_linear_5_51)"/>
</g>
<g filter="url(#filter6_d_5_51)">
<path d="M28.6064 109.941C27.8972 110.048 27.2374 109.615 27.0277 108.892C25.0611 102.468 24.0269 101.689 17.5956 101.924C16.8534 101.945 16.2 101.421 16.0931 100.713C15.9848 99.9946 16.4472 99.3216 17.1598 99.1036C23.3111 97.2806 23.9734 96.3964 24.1259 89.6634C24.144 88.9163 24.6267 88.3106 25.326 88.205C26.045 88.0959 26.6949 88.5321 26.9244 89.2511C28.8698 95.6681 29.904 96.4475 36.3255 96.2132C37.0889 96.1988 37.7294 96.7065 37.8393 97.4339C37.9462 98.1418 37.5034 98.8122 36.7712 99.0337C30.6129 100.877 29.959 101.75 29.8262 108.48C29.7898 109.241 29.2958 109.838 28.6064 109.941Z" fill="url(#paint6_linear_5_51)"/>
</g>
<path d="M147.392 52.7597C145.522 53.4658 144.276 55.2518 144.276 57.2451C144.276 59.2385 145.522 61.0236 147.392 61.7297C162.307 67.3234 174.077 79.0876 179.674 93.9967C180.379 95.8648 182.166 97.112 184.16 97.112C186.154 97.112 187.941 95.8648 188.647 93.9967C194.244 79.0876 206.013 67.3234 220.928 61.7297C222.798 61.0236 224.044 59.2385 224.044 57.2451C224.044 55.2518 222.798 53.4658 220.928 52.7597C206.013 47.166 194.244 35.4015 188.647 20.4927C187.941 18.6239 186.154 17.3781 184.16 17.3781C182.166 17.3781 180.379 18.6239 179.674 20.4927C174.077 35.4015 162.307 47.166 147.392 52.7597ZM96.5404 47.818C95.46 45.4508 93.0917 43.9562 90.5161 43.9562C87.9407 43.9562 85.5725 45.4508 84.4921 47.818C70.3351 78.3709 45.7697 102.916 15.1936 117.045C12.8255 118.124 11.3299 120.491 11.3299 123.107C11.3299 125.724 12.8255 128.049 15.1936 129.129C45.759 143.24 70.3449 167.798 84.4504 198.356C85.5308 200.724 87.899 202.218 90.4745 202.218C93.0501 202.218 95.4183 200.724 96.4987 198.356C110.631 167.77 135.198 143.214 165.797 129.087C168.165 128.009 169.661 125.641 169.661 123.066C169.661 120.491 168.165 118.124 165.797 117.045C135.226 102.945 110.658 78.37 96.5404 47.818ZM179.674 153.381C174.077 168.29 162.307 180.054 147.392 185.648C145.522 186.355 144.276 188.141 144.276 190.134C144.276 192.128 145.522 193.912 147.392 194.618C162.307 200.212 174.077 211.977 179.674 226.886C180.379 228.754 182.166 230 184.16 230C186.154 230 187.941 228.754 188.647 226.886C194.244 211.977 206.013 200.212 220.928 194.618C222.798 193.912 224.044 192.128 224.044 190.134C224.044 188.141 222.798 186.355 220.928 185.648C206.013 180.054 194.244 168.29 188.647 153.381C187.941 151.513 186.154 150.268 184.16 150.268C182.166 150.268 180.379 151.513 179.674 153.381Z" fill="url(#paint7_linear_5_51)"/>
<path d="M114.969 137.026C51.473 159.069 3.04101 185.693 6.79329 196.492C10.5456 207.291 65.0612 198.177 128.557 176.135C192.054 154.092 240.486 127.469 236.733 116.67C232.981 105.87 178.466 114.984 114.969 137.026Z" stroke="url(#paint8_linear_5_51)" stroke-width="0.549291"/>
<g style="mix-blend-mode:screen" filter="url(#filter7_f_5_51)">
<path d="M114.969 137.025C51.473 159.067 3.04102 185.691 6.7933 196.49C10.5456 207.29 65.0612 198.176 128.557 176.133C192.054 154.091 240.486 127.467 236.733 116.667C232.981 105.867 178.466 114.982 114.969 137.025Z" stroke="url(#paint9_linear_5_51)" stroke-width="0.549291"/>
</g>
<g filter="url(#filter8_d_5_51)">
<path d="M211.58 62.7114C210.601 62.5714 209.902 61.7369 209.912 60.6995C209.867 51.4362 208.81 49.9965 200.224 47.7543C199.235 47.4885 198.58 46.5353 198.72 45.5581C198.863 44.5668 199.741 43.8616 200.769 43.8562C209.616 43.8899 210.842 42.9844 213.718 34.1541C214.038 33.1748 214.917 32.5661 215.882 32.7043C216.875 32.8465 217.56 33.6791 217.577 34.7209C217.598 43.9661 218.653 45.4066 227.227 47.6462C228.241 47.9297 228.885 48.8537 228.741 49.8584C228.601 50.8355 227.75 51.5452 226.695 51.5469C217.83 51.5381 216.619 52.4311 213.772 61.2655C213.422 62.2551 212.532 62.8478 211.58 62.7114Z" fill="url(#paint10_linear_5_51)"/>
</g>
<path d="M271.855 133.2C271.855 119.64 274.495 107.88 279.775 97.92C285.175 87.84 293.155 80.04 303.715 74.52C314.395 69 327.655 66.24 343.495 66.24C349.615 66.24 355.135 66.72 360.055 67.68C364.975 68.64 368.875 69.72 371.755 70.92V98.46H369.775C366.895 96.9 363.355 95.64 359.155 94.68C354.955 93.72 350.395 93.24 345.475 93.24C335.995 93.24 328.195 94.86 322.075 98.1C316.075 101.34 311.635 105.96 308.755 111.96C305.875 117.96 304.435 125.04 304.435 133.2C304.435 141.36 305.875 148.44 308.755 154.44C311.635 160.44 316.075 165.06 322.075 168.3C328.195 171.54 335.995 173.16 345.475 173.16C350.395 173.16 354.955 172.68 359.155 171.72C363.355 170.76 366.895 169.5 369.775 167.94H371.755V195.48C368.875 196.68 364.975 197.76 360.055 198.72C355.135 199.68 349.615 200.16 343.495 200.16C327.655 200.16 314.395 197.46 303.715 192.06C293.155 186.66 285.175 178.98 279.775 169.02C274.495 158.94 271.855 147 271.855 133.2ZM403.694 198V68.4H435.734V170.28H485.054V198H403.694ZM513.416 198V68.4H545.456V198H513.416ZM530.696 198V170.28H601.256V198H530.696ZM530.696 146.16V119.88H590.456V146.16H530.696ZM530.696 96.12V68.4H599.636V96.12H530.696ZM626.829 198L641.229 113.04C642.789 103.68 645.309 96 648.789 90C652.269 84 656.589 79.32 661.749 75.96C667.029 72.6 673.209 70.26 680.289 68.94C687.369 67.62 695.289 66.96 704.049 66.96C709.089 66.96 714.549 67.26 720.429 67.86C726.309 68.46 731.649 69.3 736.449 70.38L736.809 72.54C736.329 74.7 735.969 77.58 735.729 81.18C735.609 84.78 735.489 88.44 735.369 92.16C735.369 95.88 735.369 98.94 735.369 101.34V198H703.509V104.58C703.509 101.1 703.629 97.92 703.869 95.04C704.229 92.04 704.649 89.34 705.129 86.94L709.269 94.68C707.949 94.32 706.149 94.08 703.869 93.96C701.709 93.72 699.669 93.6 697.749 93.6C692.109 93.6 687.609 94.38 684.249 95.94C680.889 97.38 678.309 99.6 676.509 102.6C674.829 105.6 673.569 109.44 672.729 114.12L658.869 198H626.829ZM649.869 164.88V139.32H718.269V164.88H649.869ZM789.165 167.22V141.3H819.585C825.585 141.3 830.445 140.04 834.165 137.52C838.005 134.88 840.825 131.52 842.625 127.44C844.425 123.36 845.325 118.98 845.325 114.3C845.325 107.7 843.405 102.84 839.565 99.72C835.845 96.6 830.865 95.04 824.625 95.04H789.165V68.4H824.805C836.565 68.4 846.285 70.26 853.965 73.98C861.765 77.58 867.585 82.74 871.425 89.46C875.385 96.18 877.365 104.1 877.365 113.22C877.365 121.62 875.805 129.18 872.685 135.9C869.565 142.5 865.305 148.14 859.905 152.82C854.625 157.5 848.565 161.1 841.725 163.62C834.885 166.02 827.745 167.22 820.305 167.22H789.165ZM771.885 198V68.4H803.925V198H771.885ZM846.045 198L820.125 160.56L850.005 155.52L881.325 196.2V198H846.045ZM927.54 164.88V139.14H957.06C963.06 139.14 967.86 137.94 971.46 135.54C975.18 133.14 977.82 129.96 979.38 126C981.06 122.04 981.9 117.66 981.9 112.86C981.9 106.62 980.1 102.12 976.5 99.36C973.02 96.48 968.46 95.04 962.82 95.04H927.54V68.4H962.46C979.26 68.4 991.98 72.24 1000.62 79.92C1009.26 87.6 1013.58 98.28 1013.58 111.96C1013.58 119.28 1012.38 126.18 1009.98 132.66C1007.7 139.14 1004.22 144.78 999.54 149.58C994.86 154.38 989.04 158.16 982.08 160.92C975.24 163.56 967.26 164.88 958.14 164.88H927.54ZM910.26 198V68.4H942.3V198H910.26ZM1042.31 68.4H1074.35V198H1042.31V68.4ZM1104.6 133.2C1104.6 119.64 1107.24 107.88 1112.52 97.92C1117.92 87.84 1125.9 80.04 1136.46 74.52C1147.14 69 1160.4 66.24 1176.24 66.24C1182.36 66.24 1187.88 66.72 1192.8 67.68C1197.72 68.64 1201.62 69.72 1204.5 70.92V98.46H1202.52C1199.64 96.9 1196.1 95.64 1191.9 94.68C1187.7 93.72 1183.14 93.24 1178.22 93.24C1168.74 93.24 1160.94 94.86 1154.82 98.1C1148.82 101.34 1144.38 105.96 1141.5 111.96C1138.62 117.96 1137.18 125.04 1137.18 133.2C1137.18 141.36 1138.62 148.44 1141.5 154.44C1144.38 160.44 1148.82 165.06 1154.82 168.3C1160.94 171.54 1168.74 173.16 1178.22 173.16C1183.14 173.16 1187.7 172.68 1191.9 171.72C1196.1 170.76 1199.64 169.5 1202.52 167.94H1204.5V195.48C1201.62 196.68 1197.72 197.76 1192.8 198.72C1187.88 199.68 1182.36 200.16 1176.24 200.16C1160.4 200.16 1147.14 197.46 1136.46 192.06C1125.9 186.66 1117.92 178.98 1112.52 169.02C1107.24 158.94 1104.6 147 1104.6 133.2Z" fill="url(#paint11_linear_5_51)"/>
<defs>
<filter id="filter0_d_5_51" x="277.448" y="13.42" width="3.45711" height="3.45617" filterUnits="userSpaceOnUse" color-interpolation-filters="sRGB">
<feFlood flood-opacity="0" result="BackgroundImageFix"/>
<feColorMatrix in="SourceAlpha" type="matrix" values="0 0 0 0 0 0 0 0 0 0 0 0 0 0 0 0 0 0 127 0" result="hardAlpha"/>
<feOffset/>
<feGaussianBlur stdDeviation="0.170743"/>
<feComposite in2="hardAlpha" operator="out"/>
<feColorMatrix type="matrix" values="0 0 0 0 0.592157 0 0 0 0 0.392157 0 0 0 0 1 0 0 0 1 0"/>
<feBlend mode="normal" in2="BackgroundImageFix" result="effect1_dropShadow_5_51"/>
<feBlend mode="normal" in="SourceGraphic" in2="effect1_dropShadow_5_51" result="shape"/>
</filter>
<filter id="filter1_d_5_51" x="45.8964" y="43.3549" width="8.96926" height="8.96619" filterUnits="userSpaceOnUse" color-interpolation-filters="sRGB">
<feFlood flood-opacity="0" result="BackgroundImageFix"/>
<feColorMatrix in="SourceAlpha" type="matrix" values="0 0 0 0 0 0 0 0 0 0 0 0 0 0 0 0 0 0 127 0" result="hardAlpha"/>
<feOffset/>
<feGaussianBlur stdDeviation="0.442949"/>
<feComposite in2="hardAlpha" operator="out"/>
<feColorMatrix type="matrix" values="0 0 0 0 0.592157 0 0 0 0 0.392157 0 0 0 0 1 0 0 0 1 0"/>
<feBlend mode="normal" in2="BackgroundImageFix" result="effect1_dropShadow_5_51"/>
<feBlend mode="normal" in="SourceGraphic" in2="effect1_dropShadow_5_51" result="shape"/>
</filter>
<filter id="filter2_d_5_51" x="8.82974" y="148.715" width="8.96934" height="8.9657" filterUnits="userSpaceOnUse" color-interpolation-filters="sRGB">
<feFlood flood-opacity="0" result="BackgroundImageFix"/>
<feColorMatrix in="SourceAlpha" type="matrix" values="0 0 0 0 0 0 0 0 0 0 0 0 0 0 0 0 0 0 127 0" result="hardAlpha"/>
<feOffset/>
<feGaussianBlur stdDeviation="0.442949"/>
<feComposite in2="hardAlpha" operator="out"/>
<feColorMatrix type="matrix" values="0 0 0 0 0.592157 0 0 0 0 0.392157 0 0 0 0 1 0 0 0 1 0"/>
<feBlend mode="normal" in2="BackgroundImageFix" result="effect1_dropShadow_5_51"/>
<feBlend mode="normal" in="SourceGraphic" in2="effect1_dropShadow_5_51" result="shape"/>
</filter>
<filter id="filter3_d_5_51" x="221.903" y="177.637" width="8.96952" height="8.9665" filterUnits="userSpaceOnUse" color-interpolation-filters="sRGB">
<feFlood flood-opacity="0" result="BackgroundImageFix"/>
<feColorMatrix in="SourceAlpha" type="matrix" values="0 0 0 0 0 0 0 0 0 0 0 0 0 0 0 0 0 0 127 0" result="hardAlpha"/>
<feOffset/>
<feGaussianBlur stdDeviation="0.442949"/>
<feComposite in2="hardAlpha" operator="out"/>
<feColorMatrix type="matrix" values="0 0 0 0 0.592157 0 0 0 0 0.392157 0 0 0 0 1 0 0 0 1 0"/>
<feBlend mode="normal" in2="BackgroundImageFix" result="effect1_dropShadow_5_51"/>
<feBlend mode="normal" in="SourceGraphic" in2="effect1_dropShadow_5_51" result="shape"/>
</filter>
<filter id="filter4_d_5_51" x="56.1261" y="121.694" width="3.45739" height="3.45659" filterUnits="userSpaceOnUse" color-interpolation-filters="sRGB">
<feFlood flood-opacity="0" result="BackgroundImageFix"/>
<feColorMatrix in="SourceAlpha" type="matrix" values="0 0 0 0 0 0 0 0 0 0 0 0 0 0 0 0 0 0 127 0" result="hardAlpha"/>
<feOffset/>
<feGaussianBlur stdDeviation="0.170743"/>
<feComposite in2="hardAlpha" operator="out"/>
<feColorMatrix type="matrix" values="0 0 0 0 0.592157 0 0 0 0 0.392157 0 0 0 0 1 0 0 0 1 0"/>
<feBlend mode="normal" in2="BackgroundImageFix" result="effect1_dropShadow_5_51"/>
<feBlend mode="normal" in="SourceGraphic" in2="effect1_dropShadow_5_51" result="shape"/>
</filter>
<filter id="filter5_d_5_51" x="108.287" y="7.9819" width="5.433" height="5.43115" filterUnits="userSpaceOnUse" color-interpolation-filters="sRGB">
<feFlood flood-opacity="0" result="BackgroundImageFix"/>
<feColorMatrix in="SourceAlpha" type="matrix" values="0 0 0 0 0 0 0 0 0 0 0 0 0 0 0 0 0 0 127 0" result="hardAlpha"/>
<feOffset/>
<feGaussianBlur stdDeviation="0.268311"/>
<feComposite in2="hardAlpha" operator="out"/>
<feColorMatrix type="matrix" values="0 0 0 0 0.592157 0 0 0 0 0.392157 0 0 0 0 1 0 0 0 1 0"/>
<feBlend mode="normal" in2="BackgroundImageFix" result="effect1_dropShadow_5_51"/>
<feBlend mode="normal" in="SourceGraphic" in2="effect1_dropShadow_5_51" result="shape"/>
</filter>
<filter id="filter6_d_5_51" x="14.9958" y="87.3883" width="23.941" height="23.932" filterUnits="userSpaceOnUse" color-interpolation-filters="sRGB">
<feFlood flood-opacity="0" result="BackgroundImageFix"/>
<feColorMatrix in="SourceAlpha" type="matrix" values="0 0 0 0 0 0 0 0 0 0 0 0 0 0 0 0 0 0 127 0" result="hardAlpha"/>
<feOffset dy="0.281606"/>
<feGaussianBlur stdDeviation="0.540812"/>
<feComposite in2="hardAlpha" operator="out"/>
<feColorMatrix type="matrix" values="0 0 0 0 0.220722 0 0 0 0 0.210451 0 0 0 0 0.241667 0 0 0 0.6 0"/>
<feBlend mode="normal" in2="BackgroundImageFix" result="effect1_dropShadow_5_51"/>
<feBlend mode="normal" in="SourceGraphic" in2="effect1_dropShadow_5_51" result="shape"/>
</filter>
<filter id="filter7_f_5_51" x="6.05994" y="111.595" width="231.407" height="89.9668" filterUnits="userSpaceOnUse" color-interpolation-filters="sRGB">
<feFlood flood-opacity="0" result="BackgroundImageFix"/>
<feBlend mode="normal" in="SourceGraphic" in2="BackgroundImageFix" result="shape"/>
<feGaussianBlur stdDeviation="0.127195" result="effect1_foregroundBlur_5_51"/>
</filter>
<filter id="filter8_d_5_51" x="196.571" y="31.109" width="34.3208" height="34.3069" filterUnits="userSpaceOnUse" color-interpolation-filters="sRGB">
<feFlood flood-opacity="0" result="BackgroundImageFix"/>
<feColorMatrix in="SourceAlpha" type="matrix" values="0 0 0 0 0 0 0 0 0 0 0 0 0 0 0 0 0 0 127 0" result="hardAlpha"/>
<feOffset dy="0.554677"/>
<feGaussianBlur stdDeviation="1.06523"/>
<feComposite in2="hardAlpha" operator="out"/>
<feColorMatrix type="matrix" values="0 0 0 0 0.296824 0 0 0 0 0.244184 0 0 0 0 0.404167 0 0 0 0.6 0"/>
<feBlend mode="normal" in2="BackgroundImageFix" result="effect1_dropShadow_5_51"/>
<feBlend mode="normal" in="SourceGraphic" in2="effect1_dropShadow_5_51" result="shape"/>
</filter>
<linearGradient id="paint0_linear_5_51" x1="277.871" y1="15.0047" x2="280.629" y2="15.0626" gradientUnits="userSpaceOnUse">
<stop stop-color="#26A4FF"/>
<stop offset="1" stop-color="#0D9AFF"/>
</linearGradient>
<linearGradient id="paint1_linear_5_51" x1="46.9955" y1="47.4659" x2="54.1509" y2="47.6166" gradientUnits="userSpaceOnUse">
<stop stop-color="#26A4FF"/>
<stop offset="1" stop-color="#0D9AFF"/>
</linearGradient>
<linearGradient id="paint2_linear_5_51" x1="9.92888" y1="152.826" x2="17.0844" y2="152.975" gradientUnits="userSpaceOnUse">
<stop stop-color="#26A4FF"/>
<stop offset="1" stop-color="#0D9AFF"/>
</linearGradient>
<linearGradient id="paint3_linear_5_51" x1="223.003" y1="181.748" x2="230.158" y2="181.899" gradientUnits="userSpaceOnUse">
<stop stop-color="#26A4FF"/>
<stop offset="1" stop-color="#0D9AFF"/>
</linearGradient>
<linearGradient id="paint4_linear_5_51" x1="56.5498" y1="123.28" x2="59.308" y2="123.337" gradientUnits="userSpaceOnUse">
<stop stop-color="#26A4FF"/>
<stop offset="1" stop-color="#0D9AFF"/>
</linearGradient>
<linearGradient id="paint5_linear_5_51" x1="108.953" y1="10.4721" x2="113.287" y2="10.5632" gradientUnits="userSpaceOnUse">
<stop stop-color="#26A4FF"/>
<stop offset="1" stop-color="#0D9AFF"/>
</linearGradient>
<linearGradient id="paint6_linear_5_51" x1="37.0253" y1="96.4066" x2="15.4751" y2="100.123" gradientUnits="userSpaceOnUse">
<stop stop-color="#26A4FF"/>
<stop offset="1" stop-color="#0D9AFF"/>
</linearGradient>
<linearGradient id="paint7_linear_5_51" x1="11.3299" y1="17.3781" x2="223.952" y2="230.092" gradientUnits="userSpaceOnUse">
<stop stop-color="#868CFF"/>
<stop offset="1" stop-color="#4318FF"/>
</linearGradient>
<linearGradient id="paint8_linear_5_51" x1="10.4808" y1="211.283" x2="1.6584" y2="185.388" gradientUnits="userSpaceOnUse">
<stop stop-color="#3F5FFF"/>
<stop offset="1" stop-color="#3F5FFF" stop-opacity="0"/>
</linearGradient>
<linearGradient id="paint9_linear_5_51" x1="10.4808" y1="211.281" x2="1.65841" y2="185.386" gradientUnits="userSpaceOnUse">
<stop stop-color="#1DA0FF"/>
<stop offset="1" stop-color="#199FFF" stop-opacity="0.13"/>
</linearGradient>
<linearGradient id="paint10_linear_5_51" x1="228.074" y1="48.1787" x2="198.139" y2="44.5264" gradientUnits="userSpaceOnUse">
<stop stop-color="#26A4FF"/>
<stop offset="1" stop-color="#0D9AFF"/>
</linearGradient>
<linearGradient id="paint11_linear_5_51" x1="282.504" y1="118.5" x2="1166.21" y2="405.613" gradientUnits="userSpaceOnUse">
<stop offset="0.340763" stop-color="#8072FF"/>
<stop offset="1" stop-color="#4E3FD5"/>
</linearGradient>
</defs>
</svg>
