<svg width="700" height="500" viewBox="0 0 700 500" fill="none" xmlns="http://www.w3.org/2000/svg">
<path d="M289.02 386.692C417.566 386.692 521.774 312.409 521.774 220.777C521.774 129.145 417.566 54.862 289.02 54.862C160.474 54.862 56.266 129.145 56.266 220.777C56.266 312.409 160.474 386.692 289.02 386.692Z" fill="#F5F5FF"/>
<path d="M540.283 454.45C598.964 454.45 646.534 447.85 646.534 439.709C646.534 431.568 598.964 424.968 540.283 424.968C481.602 424.968 434.032 431.568 434.032 439.709C434.032 447.85 481.602 454.45 540.283 454.45Z" fill="#DFDFEB"/>
<path d="M317.581 463.168C423.591 463.168 509.529 455.85 509.529 446.822C509.529 437.794 423.591 430.476 317.581 430.476C211.571 430.476 125.633 437.794 125.633 446.822C125.633 455.85 211.571 463.168 317.581 463.168Z" fill="#DFDFEB"/>
<path d="M354.278 157.1C354.278 157.1 350.726 177.717 324.844 204.255C324.844 204.255 321.984 200.715 326.933 186.048C331.881 171.381 352.802 152.106 354.278 157.1Z" fill="#7E9E6E"/>
<path d="M354.278 157.1C354.278 157.1 330.988 173.759 324.844 204.255C324.844 204.255 323.653 214.713 327.237 223.775" stroke="black" stroke-miterlimit="10" stroke-linecap="round"/>
<path d="M291.678 173.754C291.678 173.754 298.212 168.803 286.971 156.438C276.293 144.691 264.988 134.159 242.892 130.299C242.892 130.299 249.561 160.228 263.959 167.362C278.357 174.496 291.678 173.754 291.678 173.754Z" fill="#7E9E6E"/>
<path d="M238.046 195.761C238.046 195.761 261.099 200.79 300.198 187.742C300.198 187.742 297.774 183.7 280.303 182.341C262.832 180.981 233.496 192.402 238.046 195.761Z" fill="#7E9E6E"/>
<path d="M238.046 195.761C238.046 195.761 265.705 181.119 300.198 187.742C300.198 187.742 303.746 188.63 307.359 193.456" stroke="black" stroke-miterlimit="10" stroke-linecap="round"/>
<path d="M257.154 216.648C257.154 216.648 281.824 232.887 320.922 219.84C320.922 219.84 313.318 206.085 295.848 204.725C278.377 203.365 252.603 213.289 257.154 216.648Z" fill="#7E9E6E"/>
<path d="M257.154 216.648C257.154 216.648 283.744 204.241 320.922 219.84C320.922 219.84 325.294 221.786 328.907 226.612" stroke="black" stroke-miterlimit="10" stroke-linecap="round"/>
<path d="M340.658 137.578C340.658 137.578 347.939 136.706 330.172 153.141C313.395 168.661 315.528 168.782 315.528 168.782C315.528 168.782 321.894 145.559 340.658 137.578Z" fill="black"/>
<path d="M303.323 176.643C303.323 176.643 308.761 178.74 318.569 169.739C328.377 160.738 332.033 140.678 340.658 137.578C340.658 137.578 319.02 144.568 303.323 176.643Z" fill="#7E9E6E"/>
<path d="M338.985 245.566C327.922 223.282 312.563 197.966 291.678 173.755C291.678 173.755 286.547 167.036 268.722 149.617C250.897 132.198 242.892 130.3 242.892 130.3" stroke="black" stroke-miterlimit="10" stroke-linecap="round"/>
<path d="M338.103 138.646C338.103 138.646 317.513 147.631 303.324 176.643C299.887 183.672 303.999 189.234 307.36 193.456" stroke="black" stroke-miterlimit="10" stroke-linecap="round"/>
<path d="M525.859 379.153C525.859 379.153 508.65 391.852 468.997 382.532C468.997 382.532 469.102 376.172 483.333 370.055C497.565 363.937 528.109 373.263 525.859 379.153Z" fill="#7E9E6E"/>
<path d="M524.629 377.995C524.629 377.995 497.471 368.918 469.175 381.844C469.175 381.844 460.009 387.019 454.777 395.24" stroke="black" stroke-miterlimit="10" stroke-linecap="round"/>
<path d="M468.48 351.215C468.48 351.215 476.324 353.598 479.736 337.24C482.978 321.7 484.87 306.365 475.024 286.21C475.024 286.21 454.708 309.177 457.384 325.021C460.06 340.866 468.48 351.215 468.48 351.215Z" fill="#7E9E6E"/>
<path d="M526.807 357.347C526.807 357.347 532.859 361.487 508.665 362.149C485.82 362.775 487.344 364.271 487.344 364.271C487.344 364.271 507.431 350.991 526.807 357.347Z" fill="black"/>
<path d="M472.984 362.147C472.984 362.147 475.694 367.307 489.003 366.995C502.312 366.683 518.277 353.999 526.808 357.347C526.808 357.347 505.922 348.353 472.984 362.147Z" fill="#7E9E6E"/>
<path d="M438.111 431.667C449.659 409.63 461.138 382.335 468.48 351.215C468.48 351.215 470.908 343.117 474.547 318.461C478.186 293.805 475.024 286.21 475.024 286.21" stroke="black" stroke-miterlimit="10" stroke-linecap="round"/>
<path d="M524.181 356.467C524.181 356.467 502.771 349.664 472.984 362.146C465.768 365.17 463.72 369.945 460.67 378.797" stroke="black" stroke-miterlimit="10" stroke-linecap="round"/>
<path d="M251.612 232.331C246.042 232.331 240.65 230.377 236.373 226.808L224.508 216.907C220.238 213.344 215.166 211.435 209.97 211.435H151.083C145.739 211.435 141.407 215.767 141.407 221.111V232.331V434.3C141.407 443.521 148.882 450.996 158.103 450.996H451.654C458.826 450.996 464.64 445.182 464.64 438.009V245.318C464.64 238.146 458.826 232.332 451.654 232.332H251.612V232.331Z" fill="#251B72"/>
<path d="M464.639 439.097C464.639 439.097 444.661 401.623 442.663 397.319L388.064 286.087C386.692 283.131 383.729 281.24 380.47 281.24H177.576C170.2 281.24 159.532 277.374 153.868 272.648L145.681 265.816C141.411 262.253 136.339 260.344 131.143 260.344H75.102C69.137 260.344 65.085 266.404 67.364 271.916L135.13 435.815C138.929 445.002 147.89 450.994 157.831 450.994H460.974C462.95 450.994 464.775 449.301 464.774 447.325L464.639 439.097Z" fill="#5F49FF"/>
<path d="M382.112 291.818L462.23 447.559" stroke="black" stroke-miterlimit="10" stroke-linejoin="round"/>
<path d="M349.099 318.656H280.086C278.204 318.656 276.453 317.709 275.442 316.146C273.11 312.538 275.742 307.815 280.086 307.815H349.099C350.981 307.815 352.732 308.762 353.743 310.325C356.075 313.934 353.443 318.656 349.099 318.656Z" stroke="black" stroke-miterlimit="10" stroke-linejoin="round"/>
<path d="M220.002 372.184L273.735 404.197" stroke="black" stroke-miterlimit="10" stroke-linecap="round" stroke-linejoin="round"/>
<path d="M263.935 370.641L230.171 404.39" stroke="black" stroke-miterlimit="10" stroke-linecap="round" stroke-linejoin="round"/>
<path d="M285.134 398.687C289.628 382.438 275.838 364.444 254.331 358.495C232.825 352.546 211.747 360.896 207.253 377.144C202.758 393.392 216.549 411.386 238.055 417.335C259.562 423.284 280.639 414.935 285.134 398.687Z" stroke="black" stroke-miterlimit="10" stroke-linecap="round" stroke-linejoin="round"/>
<path d="M524.377 232.436C525.666 226.866 519.739 219.922 514.128 221.017C509.56 221.908 507.286 223.003 506.553 223.245C505.118 223.718 494.41 223.021 493.184 224.805C492.296 226.097 497.882 227.589 501.455 227.944C502.191 228.017 502.408 228.979 501.779 229.368C498.268 231.545 491.278 235.97 490.684 237.063C489.887 238.528 486.256 244.225 487.279 244.857C488.302 245.49 491.396 242.644 493.406 240.624C495.417 238.604 501.292 236.886 501.292 236.886C501.292 236.886 491.077 247.139 489.73 249.982C487.725 254.215 493.543 252.359 493.543 252.359C492.632 254.751 497.404 254.227 498.532 253.324C500.76 251.541 507.647 243.231 507.667 244.077C507.687 244.924 500.552 253.979 501.275 256.094C501.998 258.209 504.884 255.555 506.553 253.324C508.223 251.093 513.126 244.857 513.126 244.857C513.126 244.857 518.696 240.791 523.346 233.768C523.383 233.712 524.362 232.502 524.377 232.436Z" fill="#DB9C7F"/>
<path d="M493.797 252.129L503.544 240.513" stroke="black" stroke-miterlimit="10" stroke-linecap="round"/>
<path d="M451.104 199.487L486.166 177.612C486.383 177.47 486.59 177.313 486.786 177.142L498.348 165.245C500.865 163.039 504.747 163.553 506.603 166.338L512.27 174.838C513.47 176.638 513.512 178.972 512.377 180.814L504.239 194.017C503.64 194.989 502.763 195.748 501.714 196.198C495.167 199.002 470.153 209.567 455.233 213.782C451.528 214.829 447.927 211.813 448.251 207.976L448.617 203.655C448.76 201.956 449.677 200.419 451.104 199.487Z" fill="#7866FD"/>
<path d="M531.854 418.06L530 430.656C530 430.656 495.257 444.002 498.48 444.195C501.703 444.388 551.631 441.483 551.631 441.483L548.693 418.616L531.854 418.06Z" fill="black"/>
<path d="M541.532 214.226C541.532 214.226 544.301 240.874 546.377 242.258C548.453 243.642 551.222 244.334 551.222 244.334L546.723 213.88L541.532 214.226Z" stroke="#424242" stroke-miterlimit="10"/>
<path d="M596.396 195.91C596.396 195.91 610.478 224.586 606.39 240.563L528.328 229.825L529.957 200.034L596.396 195.91Z" fill="black"/>
<path d="M598.54 201.719C598.54 201.719 587.506 222.152 566.392 223.786" stroke="#424242" stroke-miterlimit="10" stroke-linecap="round"/>
<path d="M580.877 219.427C580.877 219.427 585.154 232.672 597.571 232.945" stroke="#424242" stroke-miterlimit="10" stroke-linecap="round"/>
<path d="M528.328 229.825C528.328 229.825 507.414 304.282 506.872 328.252L522.153 420.595C522.153 420.595 536.73 427.843 551.913 421.986C552.535 421.746 544.216 374.092 543.631 325.026L587.275 233.707L528.328 229.825Z" fill="black"/>
<path d="M606.734 237.439L603.66 327.289L638.037 421.224C638.037 421.224 623.652 433.377 605.481 422.316L568.159 332.872L571.987 267.791L555.722 257.942L553.299 229.755L606.734 237.439Z" fill="black"/>
<path d="M546.324 221.017L562.896 233.503L586.653 206.98L528.945 215.224L543.066 233.949L546.324 221.017Z" fill="white"/>
<path d="M613.746 416.541L610.747 427.408C610.747 427.408 588.829 451.181 592.059 451.181C595.289 451.181 631.281 436.465 631.281 436.465L626.667 413.824L613.746 416.541Z" fill="black"/>
<path d="M593.591 208.62C593.591 208.62 603.071 231.923 596.241 329.674C596.241 329.674 620.184 382.369 632.599 424.048" stroke="#424242" stroke-miterlimit="10" stroke-linecap="round"/>
<path d="M558.75 260.272L534.855 326.831L545.102 424.048" stroke="#424242" stroke-miterlimit="10" stroke-linecap="round"/>
<path d="M454.536 212.628C454.536 212.628 455 214.959 449.839 216.739C444.678 218.519 441.641 217.954 441.641 217.954C441.641 217.954 430.063 204.298 429.549 203.816C429.035 203.333 429.91 198.082 433.335 195.979C435.415 194.702 443.481 196.784 449.497 198.616C453.691 199.893 456.279 204.094 455.574 208.421C455.298 210.122 454.952 211.699 454.536 212.628Z" fill="#DB9C7F"/>
<path d="M445.04 209.004C445.04 209.004 435.574 207.63 431.574 204.332C431.574 204.332 425.596 203.127 424.325 203.881C423.055 204.635 422.014 205.706 419.265 206.17C416.516 206.634 417.345 204.803 420.233 202.207C421.058 201.465 423.266 198.798 425.18 198.437C427.757 197.952 433.334 195.979 433.334 195.979L444.524 209.357" fill="#DB9C7F"/>
<path d="M441.641 217.954C441.641 217.954 437.803 220.362 436.453 220.296C435.103 220.231 433.828 219.426 433.498 217.208C433.498 217.208 426.35 218.52 428.615 213.111C428.615 213.111 424.297 212.411 424.182 209.593C424.182 209.593 420.347 207.682 421.186 204.619C422.024 201.555 434.057 201.833 434.057 201.833L446.825 208.315L441.641 217.954Z" fill="#DB9C7F"/>
<path d="M438.93 218.466C438.93 218.466 442.576 215.233 442.373 213.936C442.17 212.639 441.485 211.926 440.657 212.175C439.547 212.508 435.32 215.731 433.498 217.208" stroke="#1A1C30" stroke-width="0.7799" stroke-miterlimit="10" stroke-linecap="round" stroke-linejoin="round"/>
<path d="M428.615 213.111C428.615 213.111 438.327 211.595 438.417 210.156C438.507 208.717 437.828 206.819 435.8 207.223C433.389 207.703 426.476 209.359 424.183 209.314" stroke="#1A1C30" stroke-width="0.7799" stroke-miterlimit="10" stroke-linecap="round" stroke-linejoin="round"/>
<path d="M440.657 212.175C440.657 212.175 442.442 211.067 441.736 209.829C441.03 208.591 440.066 208.156 438 208.693" stroke="#1A1C30" stroke-width="0.7799" stroke-miterlimit="10" stroke-linecap="round" stroke-linejoin="round"/>
<path d="M423.987 205.258C423.987 205.258 424.518 204.567 425.269 203.861" stroke="#1A1C30" stroke-width="0.7799" stroke-miterlimit="10" stroke-linecap="round" stroke-linejoin="round"/>
<path d="M445.048 223.266L444.881 223.36C443.573 224.096 441.916 223.632 441.181 222.324L415.933 177.43L420.836 174.673L446.084 219.567C446.82 220.874 446.356 222.53 445.048 223.266Z" fill="#333969"/>
<path d="M428.414 184.645L430.533 188.413C431.108 189.435 430.848 190.672 429.952 191.175L425.374 193.75C424.478 194.254 423.287 193.833 422.712 192.812L420.501 188.881" fill="#333969"/>
<path d="M418.618 147.775C409.86 131.528 398.882 120.344 391.905 119.821L392.136 118.278L388.49 120.655C382.224 124.922 385.554 143.983 395.928 163.228C406.302 182.473 419.791 194.615 426.057 190.348L429.485 188.063L428.498 186.742C430.909 179.287 427.146 163.597 418.618 147.775Z" fill="#333969"/>
<path d="M429.215 188.262C435.897 184.78 433.118 166.228 423.007 146.826C412.897 127.423 399.284 114.517 392.602 117.999C385.92 121.48 388.7 140.032 398.81 159.434C408.921 178.837 422.534 191.743 429.215 188.262Z" fill="#7584F1"/>
<path d="M418.802 147.756C427.245 163.419 430.559 178.519 426.206 181.484C421.852 184.449 411.479 174.156 403.036 158.493C394.593 142.83 391.279 127.73 395.632 124.765C399.986 121.8 410.359 132.093 418.802 147.756Z" fill="#D3DDF7"/>
<path d="M445.04 209.004C445.04 209.004 435.574 207.63 431.574 204.332C431.574 204.332 425.596 203.127 424.325 203.881C423.055 204.635 422.014 205.706 419.265 206.17C416.516 206.634 417.345 204.803 420.233 202.207C421.058 201.465 423.266 198.798 425.18 198.437C427.757 197.952 433.334 195.979 433.334 195.979L444.524 209.357" fill="#DB9C7F"/>
<path d="M445.04 209.004C445.04 209.004 435.574 207.63 431.574 204.332C431.574 204.332 425.596 203.127 424.325 203.881C423.055 204.635 422.014 205.706 419.265 206.17" stroke="#1A1C30" stroke-width="0.7799" stroke-miterlimit="10" stroke-linecap="round" stroke-linejoin="round"/>
<path d="M418.802 147.756C410.359 132.093 399.986 121.8 395.632 124.765C395.288 124.999 394.998 125.317 394.748 125.697C399.781 126.003 408.584 135.56 415.928 149.184C423.704 163.61 427.124 177.55 424.215 181.98C424.968 182.026 425.638 181.869 426.204 181.484C430.559 178.519 427.244 163.418 418.802 147.756Z" fill="#333969"/>
<path d="M412.924 141.617C417.415 149.949 419.178 157.982 416.862 159.559C414.546 161.136 409.028 155.661 404.537 147.329C400.046 138.997 398.283 130.964 400.599 129.387C402.914 127.81 408.433 133.285 412.924 141.617Z" fill="white"/>
<path d="M580.859 168.434L573.894 143.582C571.337 134.459 566.856 126.017 560.934 118.621C550.445 105.519 522.893 106.711 522.893 106.711L501.695 121.964C501.63 121.999 501.565 122.035 501.5 122.071C489.019 128.958 486.726 139.582 487.054 155.957L487.827 178.068L502.177 164.364L505.799 169.33C505.783 169.187 505.769 169.054 505.757 168.925L507.472 171.625L505.799 169.33C506.307 173.892 508.686 185.511 519.746 190.939L526.047 200.854L524.376 214.557C583.511 236.061 598.238 193.836 598.238 193.836L580.859 168.434Z" fill="#7866FD"/>
<path d="M499.144 162.084L506.887 171.553C506.887 171.553 505.829 186.147 520.534 190.826" stroke="black" stroke-miterlimit="10" stroke-linecap="round"/>
<path d="M557.91 181.357L512.902 220.572C512.902 220.572 521.814 233.049 525.825 233.495L579.745 199.182" fill="#7866FD"/>
<path d="M526.271 208.54C526.271 208.54 550.78 180.911 559.247 176.901" stroke="black" stroke-miterlimit="10" stroke-linecap="round"/>
<path d="M546.268 151.556C546.268 151.556 547.438 157.739 555.292 179.463" stroke="black" stroke-miterlimit="10" stroke-linecap="round"/>
<path d="M532.064 229.93C532.064 229.93 582.419 197.845 582.865 188.487C583.311 179.129 570.165 135.681 570.165 135.681" stroke="black" stroke-miterlimit="10" stroke-linecap="round"/>
<path d="M537.578 184.476C537.578 184.476 549.698 185.617 553.453 174.617" stroke="black" stroke-miterlimit="10" stroke-linecap="round"/>
<path d="M488.497 176.285C488.497 176.285 491.839 172.943 495.181 176.731" stroke="black" stroke-miterlimit="10" stroke-linecap="round"/>
<path d="M448.844 198.346L455.974 195.004C455.974 195.004 464.664 204.473 461.544 212.606L452.854 215.168C452.854 215.168 456.865 206.256 448.844 198.346Z" fill="white"/>
<path d="M515.743 215.558C515.743 215.558 525.101 219.569 531.785 231.099L524.599 236.614C524.599 236.614 515.742 223.914 509.559 221.908L515.743 215.558Z" fill="white"/>
<path d="M507.889 105.267L537.411 107.439C537.411 107.439 538.53 123.678 520.702 137.999L512.696 130.22L508.334 139.691C508.334 139.691 501.559 135.88 500.646 124.941L502.085 111.66L507.889 105.267Z" fill="white"/>
<path d="M522.894 106.71C523.971 107.628 524.482 109.042 524.232 110.435C523.284 115.72 520.418 128.512 514.672 130.119C507.405 132.152 502.873 117.801 502.873 117.801L506.496 92.734L522.894 106.71Z" fill="#DB9C7F"/>
<path d="M499.873 112.654L499.784 116.304C499.716 116.341 498.475 127.116 502.096 127.531C517.23 124.795 518.182 110.446 519.477 96.206C519.477 96.206 498.404 109.811 499.873 112.654Z" fill="black"/>
<path d="M474.678 85.777C474.678 85.777 470.99 120.925 492.825 126.973C514.661 133.022 519.892 97.412 519.139 85.097C518.386 72.782 512.897 68.202 497.593 67.65C474.951 66.834 474.678 85.777 474.678 85.777Z" fill="#DB9C7F"/>
<path d="M494.295 102.76C494.357 104.025 493.756 105.084 492.952 105.125C492.148 105.166 491.446 104.173 491.384 102.908C491.322 101.643 491.923 100.584 492.727 100.543C493.531 100.503 494.233 101.495 494.295 102.76Z" fill="black"/>
<path d="M496.693 96.285C496.693 96.285 489.479 99.425 488.771 93.971" stroke="black" stroke-miterlimit="10" stroke-linecap="round"/>
<path d="M480.017 96.299C480.017 96.299 477.634 100.436 474.894 98.598" stroke="black" stroke-miterlimit="10" stroke-linecap="round"/>
<path d="M476.184 103.647C476.184 103.647 477.547 103.207 479.547 104.263" stroke="black" stroke-miterlimit="10" stroke-linecap="round"/>
<path d="M497.564 116.758C497.564 116.758 499.531 114.877 501.155 114.449" stroke="black" stroke-miterlimit="10" stroke-linecap="round"/>
<path d="M482.805 107.697C482.805 107.697 481.551 110.547 484.743 111.915" stroke="black" stroke-miterlimit="10" stroke-linecap="round"/>
<path d="M474.422 93.334C474.422 93.334 474.792 83.042 479.352 77.227C479.352 77.227 485.622 91.478 512.641 94.385L520.507 92.732C520.507 92.732 523.728 76.23 512.441 69.732C501.155 63.234 483.882 66.825 478.325 72.668C468.905 82.572 474.422 93.334 474.422 93.334Z" fill="black"/>
<path d="M507.397 92.504L512.071 101.738L515.377 91.364L507.397 92.504Z" fill="black"/>
<path d="M523.734 100.779C522.388 105.691 518.523 108.938 515.103 108.032C511.683 107.126 510.001 102.409 511.348 97.497C512.694 92.585 516.559 89.338 519.979 90.244C523.399 91.15 525.08 95.867 523.734 100.779Z" fill="#DB9C7F"/>
<path d="M520.301 96.502C520.301 96.502 516.454 93.192 514.352 99.244C514.352 99.244 516.599 101.629 515.181 103.501C515.181 103.501 517.396 104.004 518.489 102.05" stroke="black" stroke-miterlimit="10" stroke-linecap="round" stroke-linejoin="round"/>
<path d="M518.636 98.817C518.636 98.817 518.422 97.472 516.928 95.938" stroke="black" stroke-miterlimit="10" stroke-linecap="round" stroke-linejoin="round"/>
<path d="M520.507 107.866C520.507 109.708 519.014 111.201 517.172 111.201C515.33 111.201 513.837 109.708 513.837 107.866C513.837 106.024 515.33 104.531 517.172 104.531C519.014 104.531 520.507 106.024 520.507 107.866Z" fill="white"/>
<path d="M511.159 74.035C511.159 74.035 515.263 52.602 524.84 56.706C534.416 60.81 538.749 81.331 529.628 82.927C520.508 84.523 513.439 80.191 513.439 80.191L511.159 74.035Z" fill="black"/>
<path d="M511.273 80.191C511.273 80.191 527.12 93.416 532.25 81.217" stroke="black" stroke-miterlimit="10" stroke-linecap="round"/>
<path d="M571.16 267.285L552.816 256.933" stroke="#424242" stroke-miterlimit="10" stroke-linecap="round"/>
<path d="M154.786 131.333C174.607 131.873 191.007 147.749 192.148 167.545C192.819 179.185 188.308 189.777 180.716 197.25C179.594 198.354 179.073 199.928 179.335 201.48L182.186 218.351L164.644 208.13C163.645 207.548 162.468 207.334 161.334 207.563C157.046 208.428 152.503 208.587 147.82 207.878C130.491 205.253 116.971 190.907 115.373 173.453C113.243 150.19 131.824 130.707 154.786 131.333Z" fill="#D3DDF7"/>
<path d="M151.954 183.149L151.846 173.944C153.189 173.617 154.414 173.191 155.522 172.664C156.629 172.138 157.601 171.53 158.436 170.839C159.271 170.15 159.97 169.378 160.534 168.524C161.097 167.671 161.522 166.754 161.814 165.774C162.104 164.794 162.25 163.759 162.25 162.669C162.25 161.108 161.868 159.637 161.105 158.257C160.343 156.878 159.253 155.761 157.837 154.907C156.421 154.054 154.733 153.627 152.772 153.627C150.666 153.627 148.714 154.209 146.917 155.37C145.119 156.533 143.748 158.511 142.805 161.307L141.825 160.653C142.66 158.003 144.058 155.969 146.019 154.553C147.98 153.136 150.212 152.428 152.718 152.428C154.861 152.428 156.739 152.883 158.356 153.79C159.971 154.698 161.233 155.924 162.141 157.467C163.048 159.01 163.503 160.744 163.503 162.669C163.503 164.122 163.258 165.483 162.768 166.754C162.278 168.025 161.587 169.187 160.698 170.24C159.808 171.294 158.728 172.21 157.457 172.991C156.186 173.773 154.752 174.362 153.154 174.761L153.046 183.149H151.954ZM151.301 190.012C151.301 189.54 151.428 189.15 151.682 188.841C151.936 188.533 152.282 188.378 152.717 188.378C153.225 188.378 153.588 188.524 153.807 188.814C154.025 189.105 154.133 189.504 154.133 190.012C154.133 190.448 154.015 190.829 153.779 191.156C153.542 191.483 153.188 191.646 152.716 191.646C152.243 191.646 151.89 191.5 151.653 191.21C151.418 190.92 151.301 190.521 151.301 190.012Z" fill="black"/>
</svg>
